<mxfile host="app.diagrams.net" agent="Mozilla/5.0 (Windows NT 10.0; Win64; x64) AppleWebKit/537.36 (KHTML, like Gecko) Chrome/128.0.0.0 Safari/537.36" version="24.7.10">
  <diagram name="Страница — 1" id="MLDIPnaiBjjUheRe4c9H">
    <mxGraphModel dx="1450" dy="957" grid="0" gridSize="10" guides="1" tooltips="1" connect="1" arrows="1" fold="1" page="0" pageScale="1" pageWidth="827" pageHeight="1169" math="0" shadow="0">
      <root>
        <mxCell id="0" />
        <mxCell id="1" parent="0" />
        <mxCell id="41Lzo_p5BABHvCTO7Bc1-2" value="№ паспорта" style="ellipse;whiteSpace=wrap;html=1;align=center;fontStyle=4" parent="1" vertex="1">
          <mxGeometry x="-290" y="20" width="100" height="40" as="geometry" />
        </mxCell>
        <mxCell id="41Lzo_p5BABHvCTO7Bc1-4" value="ФИО" style="ellipse;whiteSpace=wrap;html=1;align=center;" parent="1" vertex="1">
          <mxGeometry x="-290" y="96" width="100" height="40" as="geometry" />
        </mxCell>
        <mxCell id="41Lzo_p5BABHvCTO7Bc1-18" value="" style="edgeStyle=none;curved=1;rounded=0;orthogonalLoop=1;jettySize=auto;html=1;fontSize=12;startSize=8;endSize=8;endArrow=none;endFill=0;" parent="1" source="41Lzo_p5BABHvCTO7Bc1-6" target="41Lzo_p5BABHvCTO7Bc1-10" edge="1">
          <mxGeometry relative="1" as="geometry" />
        </mxCell>
        <mxCell id="41Lzo_p5BABHvCTO7Bc1-20" value="*" style="edgeLabel;html=1;align=center;verticalAlign=middle;resizable=0;points=[];fontSize=20;" parent="41Lzo_p5BABHvCTO7Bc1-18" vertex="1" connectable="0">
          <mxGeometry x="-0.703" relative="1" as="geometry">
            <mxPoint x="-8" y="-2" as="offset" />
          </mxGeometry>
        </mxCell>
        <mxCell id="f8ku-bGi_hh0rv-LhWrr-3" value="" style="edgeStyle=orthogonalEdgeStyle;rounded=0;orthogonalLoop=1;jettySize=auto;html=1;endArrow=none;endFill=0;" edge="1" parent="1" source="41Lzo_p5BABHvCTO7Bc1-6" target="f8ku-bGi_hh0rv-LhWrr-2">
          <mxGeometry relative="1" as="geometry" />
        </mxCell>
        <mxCell id="f8ku-bGi_hh0rv-LhWrr-4" value="*" style="edgeLabel;html=1;align=center;verticalAlign=middle;resizable=0;points=[];fontSize=20;" vertex="1" connectable="0" parent="f8ku-bGi_hh0rv-LhWrr-3">
          <mxGeometry x="-0.7171" y="-2" relative="1" as="geometry">
            <mxPoint x="-1" y="-8" as="offset" />
          </mxGeometry>
        </mxCell>
        <mxCell id="f8ku-bGi_hh0rv-LhWrr-5" value="" style="edgeStyle=orthogonalEdgeStyle;rounded=0;orthogonalLoop=1;jettySize=auto;html=1;endArrow=none;endFill=0;" edge="1" parent="1" source="41Lzo_p5BABHvCTO7Bc1-6" target="f8ku-bGi_hh0rv-LhWrr-2">
          <mxGeometry relative="1" as="geometry" />
        </mxCell>
        <mxCell id="f8ku-bGi_hh0rv-LhWrr-19" style="edgeStyle=orthogonalEdgeStyle;rounded=0;orthogonalLoop=1;jettySize=auto;html=1;exitX=0.5;exitY=0;exitDx=0;exitDy=0;entryX=0;entryY=0.5;entryDx=0;entryDy=0;endArrow=none;endFill=0;" edge="1" parent="1" source="41Lzo_p5BABHvCTO7Bc1-6" target="f8ku-bGi_hh0rv-LhWrr-18">
          <mxGeometry relative="1" as="geometry" />
        </mxCell>
        <mxCell id="f8ku-bGi_hh0rv-LhWrr-20" value="*" style="edgeLabel;html=1;align=center;verticalAlign=middle;resizable=0;points=[];fontSize=20;" vertex="1" connectable="0" parent="f8ku-bGi_hh0rv-LhWrr-19">
          <mxGeometry x="-0.9001" y="2" relative="1" as="geometry">
            <mxPoint x="-6" y="9" as="offset" />
          </mxGeometry>
        </mxCell>
        <mxCell id="41Lzo_p5BABHvCTO7Bc1-6" value="СТУДЕНТ" style="whiteSpace=wrap;html=1;align=center;" parent="1" vertex="1">
          <mxGeometry x="-151" y="51" width="125" height="51" as="geometry" />
        </mxCell>
        <mxCell id="41Lzo_p5BABHvCTO7Bc1-8" value="" style="endArrow=none;html=1;rounded=0;fontSize=12;startSize=8;endSize=8;curved=1;exitX=1;exitY=0.5;exitDx=0;exitDy=0;entryX=0;entryY=0.5;entryDx=0;entryDy=0;" parent="1" source="41Lzo_p5BABHvCTO7Bc1-2" target="41Lzo_p5BABHvCTO7Bc1-6" edge="1">
          <mxGeometry relative="1" as="geometry">
            <mxPoint x="39" y="206" as="sourcePoint" />
            <mxPoint x="199" y="206" as="targetPoint" />
          </mxGeometry>
        </mxCell>
        <mxCell id="41Lzo_p5BABHvCTO7Bc1-9" value="" style="endArrow=none;html=1;rounded=0;fontSize=12;startSize=8;endSize=8;curved=1;exitX=1;exitY=0.5;exitDx=0;exitDy=0;entryX=0;entryY=0.5;entryDx=0;entryDy=0;" parent="1" source="41Lzo_p5BABHvCTO7Bc1-4" target="41Lzo_p5BABHvCTO7Bc1-6" edge="1">
          <mxGeometry relative="1" as="geometry">
            <mxPoint x="39" y="206" as="sourcePoint" />
            <mxPoint x="199" y="206" as="targetPoint" />
          </mxGeometry>
        </mxCell>
        <mxCell id="41Lzo_p5BABHvCTO7Bc1-24" value="" style="edgeStyle=none;curved=1;rounded=0;orthogonalLoop=1;jettySize=auto;html=1;fontSize=12;startSize=8;endSize=8;endArrow=none;endFill=0;" parent="1" source="41Lzo_p5BABHvCTO7Bc1-10" target="41Lzo_p5BABHvCTO7Bc1-23" edge="1">
          <mxGeometry relative="1" as="geometry" />
        </mxCell>
        <mxCell id="41Lzo_p5BABHvCTO7Bc1-26" value="1" style="edgeLabel;html=1;align=center;verticalAlign=middle;resizable=0;points=[];fontSize=12;" parent="41Lzo_p5BABHvCTO7Bc1-24" vertex="1" connectable="0">
          <mxGeometry x="0.6571" y="-1" relative="1" as="geometry">
            <mxPoint x="-8" as="offset" />
          </mxGeometry>
        </mxCell>
        <mxCell id="41Lzo_p5BABHvCTO7Bc1-10" value="состав группы" style="shape=rhombus;perimeter=rhombusPerimeter;whiteSpace=wrap;html=1;align=center;" parent="1" vertex="1">
          <mxGeometry x="-148.5" y="203" width="120" height="60" as="geometry" />
        </mxCell>
        <mxCell id="41Lzo_p5BABHvCTO7Bc1-27" value="" style="edgeStyle=none;curved=1;rounded=0;orthogonalLoop=1;jettySize=auto;html=1;fontSize=12;startSize=8;endSize=8;endArrow=none;endFill=0;" parent="1" source="41Lzo_p5BABHvCTO7Bc1-21" target="41Lzo_p5BABHvCTO7Bc1-23" edge="1">
          <mxGeometry relative="1" as="geometry" />
        </mxCell>
        <mxCell id="41Lzo_p5BABHvCTO7Bc1-21" value="номер" style="ellipse;whiteSpace=wrap;html=1;align=center;fontStyle=4;" parent="1" vertex="1">
          <mxGeometry x="-290" y="340" width="100" height="40" as="geometry" />
        </mxCell>
        <mxCell id="f8ku-bGi_hh0rv-LhWrr-6" value="" style="edgeStyle=orthogonalEdgeStyle;rounded=0;orthogonalLoop=1;jettySize=auto;html=1;" edge="1" parent="1" source="41Lzo_p5BABHvCTO7Bc1-23" target="41Lzo_p5BABHvCTO7Bc1-10">
          <mxGeometry relative="1" as="geometry" />
        </mxCell>
        <mxCell id="f8ku-bGi_hh0rv-LhWrr-51" value="" style="edgeStyle=orthogonalEdgeStyle;rounded=0;orthogonalLoop=1;jettySize=auto;html=1;endArrow=none;endFill=0;" edge="1" parent="1" source="41Lzo_p5BABHvCTO7Bc1-23" target="f8ku-bGi_hh0rv-LhWrr-48">
          <mxGeometry relative="1" as="geometry" />
        </mxCell>
        <mxCell id="41Lzo_p5BABHvCTO7Bc1-23" value="ГРУППА" style="whiteSpace=wrap;html=1;align=center;" parent="1" vertex="1">
          <mxGeometry x="-153.75" y="333" width="130.5" height="54" as="geometry" />
        </mxCell>
        <mxCell id="f8ku-bGi_hh0rv-LhWrr-29" value="" style="edgeStyle=orthogonalEdgeStyle;rounded=0;orthogonalLoop=1;jettySize=auto;html=1;endArrow=none;endFill=0;" edge="1" parent="1" source="f8ku-bGi_hh0rv-LhWrr-2" target="f8ku-bGi_hh0rv-LhWrr-27">
          <mxGeometry relative="1" as="geometry" />
        </mxCell>
        <mxCell id="f8ku-bGi_hh0rv-LhWrr-30" value="*" style="edgeLabel;html=1;align=center;verticalAlign=middle;resizable=0;points=[];fontSize=20;labelBackgroundColor=none;" vertex="1" connectable="0" parent="f8ku-bGi_hh0rv-LhWrr-29">
          <mxGeometry x="0.6632" y="2" relative="1" as="geometry">
            <mxPoint x="-10" y="6" as="offset" />
          </mxGeometry>
        </mxCell>
        <mxCell id="f8ku-bGi_hh0rv-LhWrr-2" value="журнал оценок" style="shape=rhombus;perimeter=rhombusPerimeter;whiteSpace=wrap;html=1;align=center;" vertex="1" parent="1">
          <mxGeometry x="56" y="46.5" width="120" height="60" as="geometry" />
        </mxCell>
        <mxCell id="f8ku-bGi_hh0rv-LhWrr-7" value="оценка" style="ellipse;whiteSpace=wrap;html=1;align=center;" vertex="1" parent="1">
          <mxGeometry x="-15" y="-20" width="100" height="40" as="geometry" />
        </mxCell>
        <mxCell id="f8ku-bGi_hh0rv-LhWrr-8" value="дата" style="ellipse;whiteSpace=wrap;html=1;align=center;" vertex="1" parent="1">
          <mxGeometry x="145" y="-20" width="100" height="40" as="geometry" />
        </mxCell>
        <mxCell id="f8ku-bGi_hh0rv-LhWrr-16" value="" style="endArrow=none;html=1;rounded=0;exitX=0.5;exitY=1;exitDx=0;exitDy=0;entryX=0.5;entryY=0;entryDx=0;entryDy=0;" edge="1" parent="1" source="f8ku-bGi_hh0rv-LhWrr-7" target="f8ku-bGi_hh0rv-LhWrr-2">
          <mxGeometry relative="1" as="geometry">
            <mxPoint x="9" y="156" as="sourcePoint" />
            <mxPoint x="169" y="156" as="targetPoint" />
          </mxGeometry>
        </mxCell>
        <mxCell id="f8ku-bGi_hh0rv-LhWrr-17" value="" style="endArrow=none;html=1;rounded=0;entryX=0.5;entryY=1;entryDx=0;entryDy=0;exitX=0.5;exitY=0;exitDx=0;exitDy=0;" edge="1" parent="1" source="f8ku-bGi_hh0rv-LhWrr-2" target="f8ku-bGi_hh0rv-LhWrr-8">
          <mxGeometry relative="1" as="geometry">
            <mxPoint x="9" y="156" as="sourcePoint" />
            <mxPoint x="169" y="156" as="targetPoint" />
          </mxGeometry>
        </mxCell>
        <mxCell id="f8ku-bGi_hh0rv-LhWrr-18" value="студент - декан" style="shape=rhombus;perimeter=rhombusPerimeter;whiteSpace=wrap;html=1;align=center;" vertex="1" parent="1">
          <mxGeometry x="56" y="-175" width="120" height="60" as="geometry" />
        </mxCell>
        <mxCell id="f8ku-bGi_hh0rv-LhWrr-23" style="edgeStyle=orthogonalEdgeStyle;rounded=0;orthogonalLoop=1;jettySize=auto;html=1;exitX=0.5;exitY=0;exitDx=0;exitDy=0;entryX=1;entryY=0.5;entryDx=0;entryDy=0;endArrow=none;endFill=0;" edge="1" parent="1" source="f8ku-bGi_hh0rv-LhWrr-21" target="f8ku-bGi_hh0rv-LhWrr-18">
          <mxGeometry relative="1" as="geometry" />
        </mxCell>
        <mxCell id="f8ku-bGi_hh0rv-LhWrr-24" value="1" style="edgeLabel;html=1;align=center;verticalAlign=middle;resizable=0;points=[];fontSize=12;" vertex="1" connectable="0" parent="f8ku-bGi_hh0rv-LhWrr-23">
          <mxGeometry x="-0.9293" relative="1" as="geometry">
            <mxPoint x="-10" y="-2" as="offset" />
          </mxGeometry>
        </mxCell>
        <mxCell id="f8ku-bGi_hh0rv-LhWrr-21" value="СОТРУДНИК" style="whiteSpace=wrap;html=1;align=center;" vertex="1" parent="1">
          <mxGeometry x="265" y="51" width="138" height="54" as="geometry" />
        </mxCell>
        <mxCell id="f8ku-bGi_hh0rv-LhWrr-26" value="" style="endArrow=none;html=1;rounded=0;exitX=1;exitY=0.5;exitDx=0;exitDy=0;entryX=0;entryY=0.5;entryDx=0;entryDy=0;" edge="1" parent="1" source="f8ku-bGi_hh0rv-LhWrr-2" target="f8ku-bGi_hh0rv-LhWrr-21">
          <mxGeometry relative="1" as="geometry">
            <mxPoint x="34" y="31" as="sourcePoint" />
            <mxPoint x="194" y="31" as="targetPoint" />
          </mxGeometry>
        </mxCell>
        <mxCell id="f8ku-bGi_hh0rv-LhWrr-28" value="*" style="edgeLabel;html=1;align=center;verticalAlign=middle;resizable=0;points=[];fontSize=20;labelBackgroundColor=none;" vertex="1" connectable="0" parent="f8ku-bGi_hh0rv-LhWrr-26">
          <mxGeometry x="0.6945" relative="1" as="geometry">
            <mxPoint x="4" y="-6" as="offset" />
          </mxGeometry>
        </mxCell>
        <mxCell id="f8ku-bGi_hh0rv-LhWrr-50" style="edgeStyle=orthogonalEdgeStyle;rounded=0;orthogonalLoop=1;jettySize=auto;html=1;exitX=0.5;exitY=1;exitDx=0;exitDy=0;entryX=0.5;entryY=0;entryDx=0;entryDy=0;endArrow=none;endFill=0;" edge="1" parent="1" source="f8ku-bGi_hh0rv-LhWrr-27" target="f8ku-bGi_hh0rv-LhWrr-48">
          <mxGeometry relative="1" as="geometry" />
        </mxCell>
        <mxCell id="f8ku-bGi_hh0rv-LhWrr-27" value="ПРЕДМЕТ" style="whiteSpace=wrap;html=1;align=center;" vertex="1" parent="1">
          <mxGeometry x="55" y="191" width="122" height="54" as="geometry" />
        </mxCell>
        <mxCell id="f8ku-bGi_hh0rv-LhWrr-32" value="знание предмета" style="shape=rhombus;perimeter=rhombusPerimeter;whiteSpace=wrap;html=1;align=center;" vertex="1" parent="1">
          <mxGeometry x="167" y="102" width="120" height="60" as="geometry" />
        </mxCell>
        <mxCell id="f8ku-bGi_hh0rv-LhWrr-34" value="" style="endArrow=none;html=1;rounded=0;exitX=0.5;exitY=0;exitDx=0;exitDy=0;entryX=0;entryY=0.5;entryDx=0;entryDy=0;" edge="1" parent="1" source="f8ku-bGi_hh0rv-LhWrr-27" target="f8ku-bGi_hh0rv-LhWrr-32">
          <mxGeometry relative="1" as="geometry">
            <mxPoint x="-24" y="102" as="sourcePoint" />
            <mxPoint x="136" y="102" as="targetPoint" />
          </mxGeometry>
        </mxCell>
        <mxCell id="f8ku-bGi_hh0rv-LhWrr-35" value="&lt;font style=&quot;font-size: 20px;&quot;&gt;*&lt;/font&gt;" style="text;html=1;align=center;verticalAlign=middle;resizable=0;points=[];autosize=1;strokeColor=none;fillColor=none;" vertex="1" parent="1">
          <mxGeometry x="141" y="153" width="26" height="36" as="geometry" />
        </mxCell>
        <mxCell id="f8ku-bGi_hh0rv-LhWrr-36" value="" style="endArrow=none;html=1;rounded=0;exitX=1;exitY=0.5;exitDx=0;exitDy=0;entryX=0.5;entryY=1;entryDx=0;entryDy=0;" edge="1" parent="1" source="f8ku-bGi_hh0rv-LhWrr-32" target="f8ku-bGi_hh0rv-LhWrr-21">
          <mxGeometry relative="1" as="geometry">
            <mxPoint x="-24" y="97" as="sourcePoint" />
            <mxPoint x="136" y="97" as="targetPoint" />
          </mxGeometry>
        </mxCell>
        <mxCell id="f8ku-bGi_hh0rv-LhWrr-37" value="&lt;font style=&quot;font-size: 20px;&quot;&gt;*&lt;/font&gt;" style="text;html=1;align=center;verticalAlign=middle;resizable=0;points=[];autosize=1;strokeColor=none;fillColor=none;" vertex="1" parent="1">
          <mxGeometry x="283" y="102" width="26" height="36" as="geometry" />
        </mxCell>
        <mxCell id="f8ku-bGi_hh0rv-LhWrr-38" value="описание" style="ellipse;whiteSpace=wrap;html=1;align=center;" vertex="1" parent="1">
          <mxGeometry x="226" y="182" width="80" height="34" as="geometry" />
        </mxCell>
        <mxCell id="f8ku-bGi_hh0rv-LhWrr-40" value="название" style="ellipse;whiteSpace=wrap;html=1;align=center;fontStyle=4;" vertex="1" parent="1">
          <mxGeometry x="226" y="223" width="80" height="34" as="geometry" />
        </mxCell>
        <mxCell id="f8ku-bGi_hh0rv-LhWrr-42" value="" style="endArrow=none;html=1;rounded=0;entryX=0;entryY=0.5;entryDx=0;entryDy=0;exitX=1;exitY=0.5;exitDx=0;exitDy=0;" edge="1" parent="1" source="f8ku-bGi_hh0rv-LhWrr-27" target="f8ku-bGi_hh0rv-LhWrr-38">
          <mxGeometry relative="1" as="geometry">
            <mxPoint x="-17" y="92" as="sourcePoint" />
            <mxPoint x="143" y="92" as="targetPoint" />
          </mxGeometry>
        </mxCell>
        <mxCell id="f8ku-bGi_hh0rv-LhWrr-43" value="" style="endArrow=none;html=1;rounded=0;entryX=0;entryY=0.5;entryDx=0;entryDy=0;exitX=1;exitY=0.5;exitDx=0;exitDy=0;" edge="1" parent="1" source="f8ku-bGi_hh0rv-LhWrr-27" target="f8ku-bGi_hh0rv-LhWrr-40">
          <mxGeometry relative="1" as="geometry">
            <mxPoint x="-17" y="92" as="sourcePoint" />
            <mxPoint x="143" y="92" as="targetPoint" />
          </mxGeometry>
        </mxCell>
        <mxCell id="f8ku-bGi_hh0rv-LhWrr-44" value="№ паспорта" style="ellipse;whiteSpace=wrap;html=1;align=center;fontStyle=4;" vertex="1" parent="1">
          <mxGeometry x="453" y="20" width="100" height="40" as="geometry" />
        </mxCell>
        <mxCell id="f8ku-bGi_hh0rv-LhWrr-45" value="ФИО" style="ellipse;whiteSpace=wrap;html=1;align=center;" vertex="1" parent="1">
          <mxGeometry x="453" y="96" width="100" height="40" as="geometry" />
        </mxCell>
        <mxCell id="f8ku-bGi_hh0rv-LhWrr-46" value="" style="endArrow=none;html=1;rounded=0;entryX=0;entryY=0.5;entryDx=0;entryDy=0;exitX=1;exitY=0.5;exitDx=0;exitDy=0;" edge="1" parent="1" source="f8ku-bGi_hh0rv-LhWrr-21" target="f8ku-bGi_hh0rv-LhWrr-44">
          <mxGeometry relative="1" as="geometry">
            <mxPoint x="5" y="92" as="sourcePoint" />
            <mxPoint x="165" y="92" as="targetPoint" />
          </mxGeometry>
        </mxCell>
        <mxCell id="f8ku-bGi_hh0rv-LhWrr-47" value="" style="endArrow=none;html=1;rounded=0;entryX=0;entryY=0.5;entryDx=0;entryDy=0;" edge="1" parent="1" target="f8ku-bGi_hh0rv-LhWrr-45">
          <mxGeometry relative="1" as="geometry">
            <mxPoint x="404" y="79" as="sourcePoint" />
            <mxPoint x="165" y="92" as="targetPoint" />
          </mxGeometry>
        </mxCell>
        <mxCell id="f8ku-bGi_hh0rv-LhWrr-56" style="edgeStyle=orthogonalEdgeStyle;rounded=0;orthogonalLoop=1;jettySize=auto;html=1;exitX=0.5;exitY=1;exitDx=0;exitDy=0;endArrow=none;endFill=0;" edge="1" parent="1" source="f8ku-bGi_hh0rv-LhWrr-48" target="f8ku-bGi_hh0rv-LhWrr-55">
          <mxGeometry relative="1" as="geometry" />
        </mxCell>
        <mxCell id="f8ku-bGi_hh0rv-LhWrr-48" value="расписание предметов&amp;nbsp;" style="shape=rhombus;perimeter=rhombusPerimeter;whiteSpace=wrap;html=1;align=center;" vertex="1" parent="1">
          <mxGeometry x="56" y="330" width="120" height="60" as="geometry" />
        </mxCell>
        <mxCell id="f8ku-bGi_hh0rv-LhWrr-52" value="&lt;font style=&quot;font-size: 20px;&quot;&gt;*&lt;/font&gt;" style="text;html=1;align=center;verticalAlign=middle;resizable=0;points=[];autosize=1;strokeColor=none;fillColor=none;" vertex="1" parent="1">
          <mxGeometry x="96" y="241" width="26" height="36" as="geometry" />
        </mxCell>
        <mxCell id="f8ku-bGi_hh0rv-LhWrr-54" value="&lt;font style=&quot;font-size: 20px;&quot;&gt;*&lt;/font&gt;" style="text;html=1;align=center;verticalAlign=middle;resizable=0;points=[];autosize=1;strokeColor=none;fillColor=none;" vertex="1" parent="1">
          <mxGeometry x="-23.25" y="333" width="26" height="36" as="geometry" />
        </mxCell>
        <mxCell id="f8ku-bGi_hh0rv-LhWrr-59" value="" style="edgeStyle=orthogonalEdgeStyle;rounded=0;orthogonalLoop=1;jettySize=auto;html=1;endArrow=none;endFill=0;" edge="1" parent="1" source="f8ku-bGi_hh0rv-LhWrr-55" target="f8ku-bGi_hh0rv-LhWrr-58">
          <mxGeometry relative="1" as="geometry" />
        </mxCell>
        <mxCell id="f8ku-bGi_hh0rv-LhWrr-55" value="ВИД ЗАНЯТИЙ" style="whiteSpace=wrap;html=1;align=center;" vertex="1" parent="1">
          <mxGeometry x="51.5" y="478" width="129" height="53" as="geometry" />
        </mxCell>
        <mxCell id="f8ku-bGi_hh0rv-LhWrr-57" value="&lt;span style=&quot;font-size: 20px;&quot;&gt;*&lt;/span&gt;" style="text;html=1;align=center;verticalAlign=middle;resizable=0;points=[];autosize=1;strokeColor=none;fillColor=none;" vertex="1" parent="1">
          <mxGeometry x="96" y="452" width="26" height="36" as="geometry" />
        </mxCell>
        <mxCell id="f8ku-bGi_hh0rv-LhWrr-58" value="ВИД" style="ellipse;whiteSpace=wrap;html=1;align=center;fontStyle=4;" vertex="1" parent="1">
          <mxGeometry x="216" y="484.5" width="100" height="40" as="geometry" />
        </mxCell>
        <mxCell id="f8ku-bGi_hh0rv-LhWrr-60" value="№ недели" style="ellipse;whiteSpace=wrap;html=1;align=center;" vertex="1" parent="1">
          <mxGeometry x="216" y="288" width="100" height="40" as="geometry" />
        </mxCell>
        <mxCell id="f8ku-bGi_hh0rv-LhWrr-61" value="день" style="ellipse;whiteSpace=wrap;html=1;align=center;" vertex="1" parent="1">
          <mxGeometry x="216" y="340" width="100" height="40" as="geometry" />
        </mxCell>
        <mxCell id="f8ku-bGi_hh0rv-LhWrr-62" value="аудитория&amp;nbsp;" style="ellipse;whiteSpace=wrap;html=1;align=center;" vertex="1" parent="1">
          <mxGeometry x="216" y="392" width="100" height="40" as="geometry" />
        </mxCell>
        <mxCell id="f8ku-bGi_hh0rv-LhWrr-63" value="" style="endArrow=none;html=1;rounded=0;exitX=1;exitY=0.5;exitDx=0;exitDy=0;entryX=0;entryY=0.5;entryDx=0;entryDy=0;" edge="1" parent="1" source="f8ku-bGi_hh0rv-LhWrr-48" target="f8ku-bGi_hh0rv-LhWrr-60">
          <mxGeometry relative="1" as="geometry">
            <mxPoint x="-15" y="286" as="sourcePoint" />
            <mxPoint x="145" y="286" as="targetPoint" />
          </mxGeometry>
        </mxCell>
        <mxCell id="f8ku-bGi_hh0rv-LhWrr-64" value="" style="endArrow=none;html=1;rounded=0;exitX=1;exitY=0.5;exitDx=0;exitDy=0;entryX=0;entryY=0.5;entryDx=0;entryDy=0;" edge="1" parent="1" source="f8ku-bGi_hh0rv-LhWrr-48" target="f8ku-bGi_hh0rv-LhWrr-61">
          <mxGeometry relative="1" as="geometry">
            <mxPoint x="-15" y="286" as="sourcePoint" />
            <mxPoint x="145" y="286" as="targetPoint" />
          </mxGeometry>
        </mxCell>
        <mxCell id="f8ku-bGi_hh0rv-LhWrr-65" value="" style="endArrow=none;html=1;rounded=0;exitX=1;exitY=0.5;exitDx=0;exitDy=0;entryX=0;entryY=0.5;entryDx=0;entryDy=0;" edge="1" parent="1" source="f8ku-bGi_hh0rv-LhWrr-48" target="f8ku-bGi_hh0rv-LhWrr-62">
          <mxGeometry relative="1" as="geometry">
            <mxPoint x="-15" y="286" as="sourcePoint" />
            <mxPoint x="145" y="286" as="targetPoint" />
          </mxGeometry>
        </mxCell>
        <mxCell id="f8ku-bGi_hh0rv-LhWrr-66" value="должность сотрудника" style="shape=rhombus;perimeter=rhombusPerimeter;whiteSpace=wrap;html=1;align=center;" vertex="1" parent="1">
          <mxGeometry x="406" y="241" width="120" height="60" as="geometry" />
        </mxCell>
        <mxCell id="f8ku-bGi_hh0rv-LhWrr-67" value="" style="endArrow=none;html=1;rounded=0;exitX=0.5;exitY=1;exitDx=0;exitDy=0;entryX=0.5;entryY=0;entryDx=0;entryDy=0;" edge="1" parent="1" source="f8ku-bGi_hh0rv-LhWrr-21" target="f8ku-bGi_hh0rv-LhWrr-66">
          <mxGeometry relative="1" as="geometry">
            <mxPoint x="-15" y="286" as="sourcePoint" />
            <mxPoint x="145" y="286" as="targetPoint" />
          </mxGeometry>
        </mxCell>
        <mxCell id="f8ku-bGi_hh0rv-LhWrr-68" value="&lt;span style=&quot;font-size: 20px;&quot;&gt;*&lt;/span&gt;" style="text;html=1;align=center;verticalAlign=middle;resizable=0;points=[];autosize=1;strokeColor=none;fillColor=none;" vertex="1" parent="1">
          <mxGeometry x="352" y="102" width="26" height="36" as="geometry" />
        </mxCell>
        <mxCell id="f8ku-bGi_hh0rv-LhWrr-69" value="ДОЛЖНОСТЬ" style="whiteSpace=wrap;html=1;align=center;" vertex="1" parent="1">
          <mxGeometry x="407" y="347" width="118" height="58" as="geometry" />
        </mxCell>
        <mxCell id="f8ku-bGi_hh0rv-LhWrr-71" value="название" style="ellipse;whiteSpace=wrap;html=1;align=center;fontStyle=4;" vertex="1" parent="1">
          <mxGeometry x="416" y="464" width="100" height="40" as="geometry" />
        </mxCell>
        <mxCell id="f8ku-bGi_hh0rv-LhWrr-72" value="" style="endArrow=none;html=1;rounded=0;exitX=0.5;exitY=1;exitDx=0;exitDy=0;entryX=0.5;entryY=0;entryDx=0;entryDy=0;" edge="1" parent="1" source="f8ku-bGi_hh0rv-LhWrr-66" target="f8ku-bGi_hh0rv-LhWrr-69">
          <mxGeometry relative="1" as="geometry">
            <mxPoint x="-15" y="274" as="sourcePoint" />
            <mxPoint x="145" y="274" as="targetPoint" />
          </mxGeometry>
        </mxCell>
        <mxCell id="f8ku-bGi_hh0rv-LhWrr-73" value="" style="endArrow=none;html=1;rounded=0;exitX=0.5;exitY=1;exitDx=0;exitDy=0;entryX=0.5;entryY=0;entryDx=0;entryDy=0;" edge="1" parent="1" source="f8ku-bGi_hh0rv-LhWrr-69" target="f8ku-bGi_hh0rv-LhWrr-71">
          <mxGeometry relative="1" as="geometry">
            <mxPoint x="-15" y="274" as="sourcePoint" />
            <mxPoint x="145" y="274" as="targetPoint" />
          </mxGeometry>
        </mxCell>
        <mxCell id="f8ku-bGi_hh0rv-LhWrr-74" value="1" style="text;html=1;align=center;verticalAlign=middle;resizable=0;points=[];autosize=1;strokeColor=none;fillColor=none;" vertex="1" parent="1">
          <mxGeometry x="442" y="323" width="25" height="26" as="geometry" />
        </mxCell>
      </root>
    </mxGraphModel>
  </diagram>
</mxfile>
